<svg width="197" height="239" viewBox="0 0 197 239" fill="none" xmlns="http://www.w3.org/2000/svg">
<path d="M189.678 75.1699C190.261 78.5099 190.656 81.9124 190.854 85.3666L189.855 85.4236C189.951 87.1037 190 88.7962 190 90.5C190 92.2038 189.951 93.8963 189.855 95.5764L190.854 95.6334C190.656 99.0876 190.261 102.49 189.678 105.83L188.693 105.658C188.107 109.018 187.33 112.314 186.373 115.534L187.331 115.819C186.351 119.117 185.184 122.337 183.842 125.468L182.923 125.074C181.586 128.195 180.073 131.226 178.396 134.156L179.264 134.652C177.561 137.628 175.691 140.499 173.668 143.254L172.862 142.662C170.858 145.391 168.7 148.005 166.402 150.492L167.137 151.17C164.817 153.681 162.355 156.064 159.763 158.307L159.109 157.551C156.554 159.762 153.873 161.835 151.076 163.759L151.643 164.583C148.833 166.516 145.907 168.3 142.879 169.924L142.406 169.042C139.437 170.634 136.367 172.069 133.209 173.337L133.581 174.265C130.425 175.531 127.182 176.632 123.862 177.556L123.594 176.593C120.358 177.493 117.049 178.224 113.678 178.774L113.839 179.761C110.495 180.308 107.089 180.678 103.633 180.863L103.58 179.864C101.898 179.954 100.205 180 98.5 180C96.7953 180 95.1016 179.954 93.4201 179.864L93.3666 180.863C89.9108 180.678 86.5054 180.308 83.1608 179.761L83.322 178.774C79.9505 178.224 76.6416 177.493 73.4059 176.593L73.1378 177.556C69.8183 176.632 66.5749 175.531 63.4189 174.265L63.7914 173.337C60.6331 172.069 57.5633 170.634 54.5936 169.042L54.1212 169.924C51.0927 168.3 48.1672 166.516 45.3567 164.583L45.9235 163.759C43.127 161.835 40.4455 159.762 37.8914 157.551L37.237 158.307C34.6454 156.064 32.1833 153.681 29.8632 151.17L30.5977 150.492C28.2996 148.005 26.1425 145.391 24.1384 142.662L23.3325 143.254C21.3086 140.499 19.4391 137.628 17.7363 134.652L18.6042 134.156C16.9275 131.226 15.4143 128.195 14.0768 125.074L13.1577 125.468C11.816 122.337 10.6491 119.117 9.6688 115.819L10.6273 115.534C9.66996 112.314 8.89264 109.018 8.30675 105.658L7.32161 105.83C6.73914 102.49 6.34373 99.0876 6.14631 95.6334L7.14468 95.5764C7.04866 93.8963 7 92.2038 7 90.5C7 88.7962 7.04866 87.1037 7.14468 85.4236L6.14631 85.3666C6.34373 81.9124 6.73914 78.51 7.32161 75.1699L8.30674 75.3417C8.89264 71.9821 9.66996 68.6864 10.6273 65.4656L9.6688 65.1807C10.6491 61.8829 11.816 58.6628 13.1577 55.5322L14.0768 55.9261C15.4143 52.8052 16.9275 49.774 18.6042 46.8443L17.7363 46.3475C19.4391 43.3725 21.3086 40.5012 23.3325 37.7457L24.1384 38.3376C26.1424 35.6092 28.2996 32.9954 30.5977 30.5083L29.8632 29.8297C32.1833 27.3187 34.6454 24.9357 37.237 22.6927L37.8914 23.4489C40.4455 21.2383 43.127 19.1651 45.9235 17.2413L45.3567 16.4174C48.1672 14.4839 51.0927 12.6997 54.1212 11.0765L54.5936 11.9579C57.5633 10.3661 60.6331 8.93084 63.7914 7.66337L63.4189 6.73531C66.5749 5.46878 69.8183 4.368 73.1378 3.44407L73.406 4.40745C76.6416 3.50684 79.9505 2.77603 83.322 2.22553L83.1608 1.2386C86.5054 0.692483 89.9108 0.321946 93.3666 0.137005L93.4201 1.13558C95.1016 1.04559 96.7953 1 98.5 1C100.205 1 101.898 1.04559 103.58 1.13558L103.633 0.137005C107.089 0.321947 110.495 0.692484 113.839 1.2386L113.678 2.22553C117.049 2.77604 120.358 3.50684 123.594 4.40745L123.862 3.44407C127.182 4.36801 130.425 5.46878 133.581 6.73532L133.209 7.66337C136.367 8.93085 139.437 10.3661 142.406 11.9579L142.879 11.0765C145.907 12.6997 148.833 14.484 151.643 16.4174L151.076 17.2413C153.873 19.1651 156.554 21.2383 159.109 23.4489L159.763 22.6927C162.355 24.9357 164.817 27.3187 167.137 29.8297L166.402 30.5083C168.7 32.9954 170.858 35.6092 172.862 38.3376L173.668 37.7457C175.691 40.5012 177.561 43.3725 179.264 46.3475L178.396 46.8443C180.073 49.774 181.586 52.8052 182.923 55.9261L183.842 55.5322C185.184 58.6628 186.351 61.8829 187.331 65.1807L186.373 65.4656C187.33 68.6864 188.107 71.9821 188.693 75.3417L189.678 75.1699Z" stroke="#FB6F92" stroke-width="2" stroke-dasharray="10 10"/>
<path d="M149.561 74.8962C150.627 78.3203 151.362 81.8864 151.729 85.5585L150.734 85.658C150.91 87.415 151 89.1971 151 91C151 92.8029 150.91 94.585 150.734 96.342L151.729 96.4415C151.362 100.114 150.627 103.68 149.561 107.104L148.607 106.807C147.538 110.239 146.13 113.527 144.422 116.632L145.298 117.114C143.541 120.306 141.473 123.307 139.132 126.08L138.368 125.435C136.07 128.158 133.504 130.656 130.711 132.89L131.336 133.671C128.512 135.929 125.46 137.922 122.219 139.612L121.757 138.725C118.621 140.36 115.305 141.705 111.846 142.725L112.129 143.685C108.694 144.697 105.12 145.395 101.443 145.744L101.349 144.748C99.5889 144.915 97.8047 145 96 145C94.1953 145 92.4111 144.915 90.6515 144.748L90.5572 145.744C86.8796 145.395 83.306 144.697 79.8713 143.685L80.1541 142.725C76.6947 141.705 73.3788 140.36 70.2431 138.725L69.7808 139.612C66.5398 137.922 63.4878 135.929 60.6643 133.671L61.2889 132.89C58.4955 130.656 55.93 128.158 53.6317 125.435L52.8675 126.08C50.5273 123.307 48.4588 120.306 46.7024 117.114L47.5785 116.632C45.8698 113.527 44.4621 110.239 43.3935 106.807L42.4387 107.104C41.3727 103.68 40.6378 100.114 40.2706 96.4415L41.2657 96.342C41.09 94.585 41 92.8029 41 91C41 89.1971 41.09 87.415 41.2657 85.658L40.2706 85.5585C40.6378 81.8864 41.3727 78.3203 42.4387 74.8962L43.3935 75.1935C44.4621 71.7609 45.8698 68.4733 47.5785 65.3683L46.7024 64.8862C48.4588 61.6944 50.5273 58.6926 52.8675 55.9201L53.6317 56.5651C55.93 53.8423 58.4955 51.3444 61.2889 49.1104L60.6643 48.3294C63.4878 46.0713 66.5398 44.0781 69.7808 42.3884L70.2431 43.2751C73.3788 41.6403 76.6947 40.2947 80.1541 39.2746L79.8713 38.3154C83.306 37.3025 86.8796 36.6048 90.5572 36.2565L90.6515 37.252C92.4111 37.0853 94.1953 37 96 37C97.8047 37 99.5889 37.0853 101.349 37.252L101.443 36.2565C105.12 36.6048 108.694 37.3025 112.129 38.3154L111.846 39.2746C115.305 40.2947 118.621 41.6403 121.757 43.2751L122.219 42.3883C125.46 44.0781 128.512 46.0713 131.336 48.3294L130.711 49.1104C133.504 51.3444 136.07 53.8423 138.368 56.5651L139.132 55.9201C141.473 58.6926 143.541 61.6944 145.298 64.8862L144.422 65.3683C146.13 68.4733 147.538 71.7609 148.607 75.1935L149.561 74.8962Z" stroke="#FB6F92" stroke-width="2" stroke-dasharray="10 10"/>
<circle cx="20" cy="45" r="19" fill="white" stroke="#FB6F92" stroke-width="2"/>
<circle cx="98" cy="91" r="19" fill="#FB6F92" stroke="#FB6F92" stroke-width="2"/>
<circle cx="177" cy="56" r="19" fill="white" stroke="#FB6F92" stroke-width="2"/>
<circle cx="144.5" cy="168.5" r="11.5" fill="white" stroke="#FB6F92" stroke-width="2"/>
<circle cx="26" cy="143" r="19" fill="white" stroke="#FB6F92" stroke-width="2"/>
<path d="M71.7002 110.964L72.902 109.294L73.7326 111.18L71.7002 110.964Z" fill="white" stroke="black" stroke-width="2"/>
<path d="M64.8174 87.4588L66.0191 85.7885L66.8497 87.6752L64.8174 87.4588Z" fill="white" stroke="black" stroke-width="2"/>
<path d="M99.6609 58.9655L100.863 57.2952L101.693 59.182L99.6609 58.9655Z" fill="white" stroke="black" stroke-width="2"/>
<path d="M120.976 70.6683L122.178 68.998L123.009 70.8847L120.976 70.6683Z" fill="white" stroke="black" stroke-width="2"/>
<path d="M70.1242 74.9222L66.5379 61.5379L79.9222 65.1242L70.1242 74.9222Z" fill="#FB6F92" stroke="#FB6F92" stroke-width="2"/>
<path d="M69 95.5884L57 88.6602L69 81.732V95.5884Z" fill="#FB6F92" stroke="#FB6F92" stroke-width="2"/>
<path d="M126 80.7321L138 87.6603L126 94.5885V80.7321Z" fill="#FB6F92" stroke="#FB6F92" stroke-width="2"/>
<path d="M70.1242 101.932L66.5379 115.316L79.9222 111.73L70.1242 101.932Z" fill="#FB6F92" stroke="#FB6F92" stroke-width="2"/>
<path d="M123.73 74.9222L127.316 61.5379L113.932 65.1242L123.73 74.9222Z" fill="#FB6F92" stroke="#FB6F92" stroke-width="2"/>
<path d="M123.73 101.932L127.316 115.316L113.932 111.73L123.73 101.932Z" fill="#FB6F92" stroke="#FB6F92" stroke-width="2"/>
<path d="M90.7321 62L97.6603 50L104.588 62H90.7321Z" fill="#FB6F92" stroke="#FB6F92" stroke-width="2"/>
<path d="M90.7321 116L97.6603 128L104.588 116H90.7321Z" fill="#FB6F92" stroke="#FB6F92" stroke-width="2"/>
<path d="M117.5 91.5C117.5 99.8162 111.201 106.5 103.5 106.5C95.7989 106.5 89.5 99.8162 89.5 91.5C89.5 83.1838 95.7989 76.5 103.5 76.5C111.201 76.5 117.5 83.1838 117.5 91.5Z" fill="white" stroke="#FB6F92"/>
<path d="M19.0312 223.375C18.1562 223.375 17.625 223.156 17.4375 222.719L8.78125 202.422C8.75 202.339 8.73438 202.276 8.73438 202.234C8.73438 201.693 9.30208 201.422 10.4375 201.422C11.3125 201.422 11.8385 201.641 12.0156 202.078L19.4844 219.594L27.0312 201.922C27.1667 201.589 27.5625 201.422 28.2188 201.422C29.0625 201.422 29.4844 201.625 29.4844 202.031C29.4844 202.062 29.474 202.109 29.4531 202.172L20.6875 222.688C20.4896 223.146 19.9375 223.375 19.0312 223.375ZM47.375 223.375C46.4271 223.375 45.8542 223.151 45.6562 222.703L42.7969 216.219H33.0625L30.1875 222.891C30.0521 223.214 29.6615 223.375 29.0156 223.375C28.1719 223.375 27.75 223.167 27.75 222.75C27.75 222.719 27.7604 222.672 27.7812 222.609L36.6562 202.062C36.8333 201.635 37.4271 201.422 38.4375 201.422C39.3229 201.422 39.8646 201.641 40.0625 202.078L49 222.328C49.0312 222.401 49.0469 222.469 49.0469 222.531C49.0469 223.094 48.4896 223.375 47.375 223.375ZM42.0156 214.469L37.875 205.078L33.8281 214.469H42.0156ZM59.5 223.359C57.4375 223.401 55.5312 222.943 53.7812 221.984C52.0417 221.026 50.875 219.495 50.2812 217.391C50.25 217.234 50.2344 217.156 50.2344 217.156C50.2344 216.583 50.7656 216.297 51.8281 216.297C52.7448 216.297 53.2656 216.547 53.3906 217.047C54.2031 220.099 56.25 221.625 59.5312 221.625C60.8646 221.625 62.1927 221.229 63.5156 220.438C64.8385 219.635 65.5 218.474 65.5 216.953C65.5 215.901 64.8438 215.073 63.5312 214.469C62.5521 214.01 61.3073 213.703 59.7969 213.547C58.8073 213.443 57.7917 213.286 56.75 213.078C55.7083 212.87 54.7396 212.536 53.8438 212.078C51.7917 211.005 50.7656 209.422 50.7656 207.328C50.7656 205.203 51.7917 203.688 53.8438 202.781C55.9062 201.875 57.8177 201.422 59.5781 201.422C61.3802 201.422 63.1042 201.828 64.75 202.641C66.3958 203.453 67.474 204.776 67.9844 206.609C68.026 206.755 68.0469 206.859 68.0469 206.922C68.0469 207.495 67.526 207.781 66.4844 207.781C65.5573 207.781 65.0312 207.531 64.9062 207.031C64.2708 204.458 62.4948 203.172 59.5781 203.172C58.349 203.172 57.099 203.505 55.8281 204.172C54.5677 204.828 53.9375 205.875 53.9375 207.312C53.9375 208.323 54.6667 209.146 56.125 209.781C57.2083 210.24 58.5573 210.552 60.1719 210.719C61.1927 210.823 62.2552 210.99 63.3594 211.219C64.4635 211.448 65.4479 211.839 66.3125 212.391C67.875 213.38 68.6562 214.859 68.6562 216.828C68.6562 219.151 67.6094 220.812 65.5156 221.812C63.4323 222.812 61.4271 223.328 59.5 223.359ZM79.3438 223.188C78.2812 223.188 77.75 222.896 77.75 222.312V203.359H71.4219C70.3698 203.359 69.8438 203.068 69.8438 202.484C69.8438 201.901 70.3698 201.609 71.4219 201.609H87.25C88.3021 201.609 88.8281 201.901 88.8281 202.484C88.8281 203.068 88.3021 203.359 87.25 203.359H80.9219V222.312C80.9219 222.896 80.3958 223.188 79.3438 223.188ZM99.9062 223.188C98.8438 223.188 98.3125 222.896 98.3125 222.312V203.359H91.9844C90.9323 203.359 90.4062 203.068 90.4062 202.484C90.4062 201.901 90.9323 201.609 91.9844 201.609H107.812C108.865 201.609 109.391 201.901 109.391 202.484C109.391 203.068 108.865 203.359 107.812 203.359H101.484V222.312C101.484 222.896 100.958 223.188 99.9062 223.188ZM120.312 223.375C118.26 223.375 116.255 222.755 114.297 221.516C112.339 220.266 111.359 218.51 111.359 216.25V202.297C111.359 201.714 111.885 201.422 112.938 201.422C114 201.422 114.531 201.714 114.531 202.297V216.25C114.531 217.781 115.13 219.062 116.328 220.094C117.536 221.115 118.875 221.625 120.344 221.625C121.823 221.625 123.156 221.104 124.344 220.062C125.542 219.021 126.141 217.75 126.141 216.25V202.297C126.141 201.714 126.672 201.422 127.734 201.422C128.786 201.422 129.312 201.714 129.312 202.297V216.25C129.312 218.521 128.323 220.276 126.344 221.516C124.375 222.755 122.365 223.375 120.312 223.375ZM150.906 223.375C149.958 223.375 149.385 223.151 149.188 222.703L146.328 216.219H136.594L133.719 222.891C133.583 223.214 133.193 223.375 132.547 223.375C131.703 223.375 131.281 223.167 131.281 222.75C131.281 222.719 131.292 222.672 131.312 222.609L140.188 202.062C140.365 201.635 140.958 201.422 141.969 201.422C142.854 201.422 143.396 201.641 143.594 202.078L152.531 222.328C152.562 222.401 152.578 222.469 152.578 222.531C152.578 223.094 152.021 223.375 150.906 223.375ZM145.547 214.469L141.406 205.078L137.359 214.469H145.547ZM171.391 223.375C170.536 223.375 169.958 223.177 169.656 222.781L157.016 205.781V222.719C157.016 223.156 156.604 223.375 155.781 223.375C154.958 223.375 154.547 223.156 154.547 222.719V202.453C154.547 201.766 155.172 201.422 156.422 201.422C157.266 201.422 157.839 201.62 158.141 202.016L170.797 219.016V202.094C170.797 201.646 171.208 201.422 172.031 201.422C172.854 201.422 173.266 201.646 173.266 202.094V222.375C173.266 223.042 172.641 223.375 171.391 223.375ZM192.359 223.375C191.495 223.375 190.911 223.172 190.609 222.766L182.984 212.594L179.547 215.734V222.578C179.547 223.109 179.016 223.375 177.953 223.375C176.901 223.375 176.375 223.109 176.375 222.578V202.219C176.375 201.688 176.901 201.422 177.953 201.422C179.016 201.422 179.547 201.688 179.547 202.219V212.797L191.578 201.781C191.828 201.542 192.229 201.422 192.781 201.422C193.021 201.422 193.245 201.448 193.453 201.5C193.964 201.625 194.219 201.839 194.219 202.141C194.219 202.245 194.156 202.354 194.031 202.469L185.359 210.422L194.125 222.109C194.208 222.224 194.25 222.333 194.25 222.438C194.25 222.865 193.833 223.156 193 223.312C192.75 223.354 192.536 223.375 192.359 223.375Z" fill="#FB6F92"/>
</svg>
